<?xml version="1.0" encoding="UTF-8" standalone="no"?><!DOCTYPE svg PUBLIC "-//W3C//DTD SVG 1.1//EN" "http://www.w3.org/Graphics/SVG/1.1/DTD/svg11.dtd"><svg width="100%" height="100%" viewBox="0 0 240 240" version="1.1" xmlns="http://www.w3.org/2000/svg" xmlns:xlink="http://www.w3.org/1999/xlink" xml:space="preserve" xmlns:serif="http://www.serif.com/" style="fill-rule:evenodd;clip-rule:evenodd;stroke-linejoin:round;stroke-miterlimit:2;"><path d="M120,41.598c63.455,0 114.972,52.695 114.972,117.6c0,31.345 -17.876,47.735 -40.678,56.304c-24.415,9.175 -54.477,9.384 -74.293,9.384c-10.461,0 -23.777,-0.058 -37.611,-1.463c-12.371,-1.256 -25.156,-3.59 -36.682,-7.921c-22.802,-8.569 -40.678,-24.959 -40.678,-56.304c0,-32.064 12.572,-61.148 32.946,-82.371c20.867,-21.738 49.919,-35.229 82.026,-35.229Z" style="fill:#f24343;"/><path d="M108.133,39.025c7.844,0.716 15.891,0.716 23.734,0c7.897,-0.721 23.648,-4.326 23.648,-4.326c0.942,-0.072 1.855,0.266 2.329,0.862c0.474,0.596 0.42,1.339 -0.137,1.896c0,-0 -3.139,3.407 -5.963,6.473c-2.558,2.777 -2.781,6.981 -0.531,10.013c2.946,3.97 6.494,8.751 6.494,8.751c0.557,0.557 0.61,1.3 0.137,1.896c-0.474,0.596 -1.386,0.934 -2.329,0.862c0,0 -12.309,-1.747 -19.166,-2.72c-2.774,-0.394 -5.549,0.719 -7.282,2.92c-2.857,3.628 -6.875,8.73 -6.875,8.73c-0.386,0.629 -1.244,1.034 -2.192,1.034c-0.948,0 -1.806,-0.405 -2.192,-1.034c0,0 -4.017,-5.101 -6.875,-8.73c-1.734,-2.202 -4.508,-3.314 -7.282,-2.92c-6.857,0.973 -19.166,2.72 -19.166,2.72c-0.942,0.072 -1.855,-0.266 -2.329,-0.862c-0.474,-0.596 -0.42,-1.339 0.137,-1.896c0,0 3.399,-5.048 6.112,-9.076c1.955,-2.903 1.756,-6.75 -0.489,-9.435c-2.615,-3.128 -5.623,-6.726 -5.623,-6.726c-0.557,-0.557 -0.61,-1.3 -0.137,-1.896c0.474,-0.596 1.386,-0.934 2.329,-0.862c0,0 15.751,3.605 23.648,4.326Z" style="fill:#85db6b;"/><path d="M110.855,22.642c-0.704,-1.808 -0.47,-3.847 0.626,-5.449c1.095,-1.602 2.911,-2.079 4.851,-2.079l7.338,-0c1.94,0 3.756,0.478 4.851,2.079c1.095,1.602 1.329,3.641 0.626,5.449c-2.394,6.152 -5.294,24.643 -5.294,24.643l-7.702,0c0,-0 -2.9,-18.491 -5.294,-24.643Z" style="fill:#85db6b;"/><path d="M95.577,100.211c0.286,2.98 -1.898,5.628 -4.878,5.914c-4.494,0.431 -12.185,1.17 -16.68,1.601c-1.431,0.137 -2.858,-0.299 -3.968,-1.214c-1.109,-0.915 -1.809,-2.233 -1.947,-3.664c0,-0 0,-0 0,-0c-0.572,-5.957 5.486,-7.561 13.067,-8.289c7.581,-0.728 13.834,-0.305 14.405,5.652c0,0 0,0 0,0Z" style="fill:#20202a;"/><path d="M171.895,102.849c-0.287,2.98 -2.936,5.163 -5.916,4.877c-4.494,-0.433 -12.185,-1.173 -16.679,-1.606c-1.431,-0.138 -2.749,-0.838 -3.664,-1.948c-0.915,-1.109 -1.351,-2.537 -1.213,-3.968c0,-0 0,-0 0,-0c0.574,-5.957 6.826,-6.377 14.407,-5.648c7.581,0.73 13.638,2.336 13.065,8.293c-0,0 -0,0 -0,0Z" style="fill:#20202a;"/><path d="M64.681,120.214c9.933,-1.487 32.626,5.26 55.319,5.26c22.693,-0 45.386,-6.747 55.319,-5.26c4.946,0.741 11.714,8.728 11.714,18.112c0,29.504 -31.778,38.578 -67.033,38.578c-35.255,0 -67.033,-9.074 -67.033,-38.578c0,-9.384 6.767,-17.371 11.714,-18.112Z" style="fill:#c1242c;"/></svg>